<mxfile host="app.diagrams.net" modified="2020-12-09T12:20:05.899Z" agent="5.0 (X11; Linux x86_64) AppleWebKit/537.36 (KHTML, like Gecko) Chrome/84.0.4147.89 Safari/537.36" etag="-1z74pFmU5RZ9itSOt9g" version="13.11.0" type="github">
  <diagram id="C5RBs43oDa-KdzZeNtuy" name="Page-1">
    <mxGraphModel dx="1008" dy="528" grid="1" gridSize="10" guides="1" tooltips="1" connect="1" arrows="1" fold="1" page="1" pageScale="1" pageWidth="827" pageHeight="1169" math="0" shadow="0">
      <root>
        <mxCell id="WIyWlLk6GJQsqaUBKTNV-0" />
        <mxCell id="WIyWlLk6GJQsqaUBKTNV-1" parent="WIyWlLk6GJQsqaUBKTNV-0" />
        <mxCell id="AHSf6b9ehlLFjh01Vmg8-9" style="edgeStyle=orthogonalEdgeStyle;orthogonalLoop=1;jettySize=auto;html=1;exitX=0.5;exitY=1;exitDx=0;exitDy=0;entryX=0.5;entryY=0;entryDx=0;entryDy=0;curved=1;" edge="1" parent="WIyWlLk6GJQsqaUBKTNV-1" source="WIyWlLk6GJQsqaUBKTNV-3" target="AHSf6b9ehlLFjh01Vmg8-8">
          <mxGeometry relative="1" as="geometry" />
        </mxCell>
        <mxCell id="WIyWlLk6GJQsqaUBKTNV-3" value="Driver App/car gps device/vendor&amp;nbsp;&lt;br&gt;(Gps provider) MQTT Publisher" style="whiteSpace=wrap;html=1;fontSize=12;glass=0;strokeWidth=1;shadow=0;rounded=1;" parent="WIyWlLk6GJQsqaUBKTNV-1" vertex="1">
          <mxGeometry x="95" width="240" height="40" as="geometry" />
        </mxCell>
        <mxCell id="AHSf6b9ehlLFjh01Vmg8-4" style="edgeStyle=orthogonalEdgeStyle;orthogonalLoop=1;jettySize=auto;html=1;exitX=0.5;exitY=1;exitDx=0;exitDy=0;curved=1;" edge="1" parent="WIyWlLk6GJQsqaUBKTNV-1">
          <mxGeometry relative="1" as="geometry">
            <mxPoint x="215" y="170" as="targetPoint" />
            <mxPoint x="215" y="120" as="sourcePoint" />
            <Array as="points">
              <mxPoint x="215" y="100" />
              <mxPoint x="215" y="100" />
            </Array>
          </mxGeometry>
        </mxCell>
        <mxCell id="AHSf6b9ehlLFjh01Vmg8-8" value="MQTT Broker" style="whiteSpace=wrap;html=1;rounded=1;" vertex="1" parent="WIyWlLk6GJQsqaUBKTNV-1">
          <mxGeometry x="155" y="80" width="115" height="20" as="geometry" />
        </mxCell>
        <mxCell id="AHSf6b9ehlLFjh01Vmg8-19" style="edgeStyle=orthogonalEdgeStyle;orthogonalLoop=1;jettySize=auto;html=1;curved=1;" edge="1" parent="WIyWlLk6GJQsqaUBKTNV-1" source="AHSf6b9ehlLFjh01Vmg8-18">
          <mxGeometry relative="1" as="geometry">
            <mxPoint x="210" y="290" as="targetPoint" />
          </mxGeometry>
        </mxCell>
        <mxCell id="AHSf6b9ehlLFjh01Vmg8-18" value="MQTT Consumer (MQTT consume message and send it to kafka queue)" style="shape=process;whiteSpace=wrap;html=1;backgroundOutline=1;rounded=1;" vertex="1" parent="WIyWlLk6GJQsqaUBKTNV-1">
          <mxGeometry x="150" y="170" width="120" height="60" as="geometry" />
        </mxCell>
        <mxCell id="AHSf6b9ehlLFjh01Vmg8-21" style="edgeStyle=orthogonalEdgeStyle;orthogonalLoop=1;jettySize=auto;html=1;curved=1;" edge="1" parent="WIyWlLk6GJQsqaUBKTNV-1" source="AHSf6b9ehlLFjh01Vmg8-20">
          <mxGeometry relative="1" as="geometry">
            <mxPoint x="212.5" y="380" as="targetPoint" />
          </mxGeometry>
        </mxCell>
        <mxCell id="AHSf6b9ehlLFjh01Vmg8-20" value="Kafka Server" style="whiteSpace=wrap;html=1;rounded=1;" vertex="1" parent="WIyWlLk6GJQsqaUBKTNV-1">
          <mxGeometry x="152.5" y="290" width="120" height="40" as="geometry" />
        </mxCell>
        <mxCell id="AHSf6b9ehlLFjh01Vmg8-23" style="edgeStyle=orthogonalEdgeStyle;orthogonalLoop=1;jettySize=auto;html=1;curved=1;" edge="1" parent="WIyWlLk6GJQsqaUBKTNV-1" source="AHSf6b9ehlLFjh01Vmg8-22">
          <mxGeometry relative="1" as="geometry">
            <mxPoint x="350" y="410" as="targetPoint" />
          </mxGeometry>
        </mxCell>
        <mxCell id="AHSf6b9ehlLFjh01Vmg8-25" style="edgeStyle=orthogonalEdgeStyle;orthogonalLoop=1;jettySize=auto;html=1;entryX=0.583;entryY=-0.1;entryDx=0;entryDy=0;entryPerimeter=0;curved=1;" edge="1" parent="WIyWlLk6GJQsqaUBKTNV-1" source="AHSf6b9ehlLFjh01Vmg8-22" target="AHSf6b9ehlLFjh01Vmg8-26">
          <mxGeometry relative="1" as="geometry">
            <mxPoint x="220" y="530" as="targetPoint" />
          </mxGeometry>
        </mxCell>
        <mxCell id="AHSf6b9ehlLFjh01Vmg8-22" value="Kafka Consumer&lt;br&gt;(Send Raw data to Mongo Db)&lt;br&gt;(Create new Queue for distance calculation/Scattered Point marking)&lt;br&gt;&amp;nbsp;" style="shape=process;whiteSpace=wrap;html=1;backgroundOutline=1;rounded=1;" vertex="1" parent="WIyWlLk6GJQsqaUBKTNV-1">
          <mxGeometry x="155" y="380" width="130" height="130" as="geometry" />
        </mxCell>
        <mxCell id="AHSf6b9ehlLFjh01Vmg8-24" value="Mongo&lt;br&gt;" style="shape=cylinder3;whiteSpace=wrap;html=1;boundedLbl=1;backgroundOutline=1;size=15;rounded=1;" vertex="1" parent="WIyWlLk6GJQsqaUBKTNV-1">
          <mxGeometry x="350" y="390" width="60" height="80" as="geometry" />
        </mxCell>
        <mxCell id="AHSf6b9ehlLFjh01Vmg8-27" style="edgeStyle=orthogonalEdgeStyle;orthogonalLoop=1;jettySize=auto;html=1;curved=1;" edge="1" parent="WIyWlLk6GJQsqaUBKTNV-1" source="AHSf6b9ehlLFjh01Vmg8-26">
          <mxGeometry relative="1" as="geometry">
            <mxPoint x="213" y="620" as="targetPoint" />
            <Array as="points">
              <mxPoint x="210" y="605" />
              <mxPoint x="213" y="605" />
            </Array>
          </mxGeometry>
        </mxCell>
        <mxCell id="AHSf6b9ehlLFjh01Vmg8-26" value="Kafka Server" style="whiteSpace=wrap;html=1;rounded=1;" vertex="1" parent="WIyWlLk6GJQsqaUBKTNV-1">
          <mxGeometry x="150" y="545" width="120" height="40" as="geometry" />
        </mxCell>
        <mxCell id="AHSf6b9ehlLFjh01Vmg8-29" style="edgeStyle=orthogonalEdgeStyle;orthogonalLoop=1;jettySize=auto;html=1;curved=1;" edge="1" parent="WIyWlLk6GJQsqaUBKTNV-1" source="AHSf6b9ehlLFjh01Vmg8-28" target="AHSf6b9ehlLFjh01Vmg8-30">
          <mxGeometry relative="1" as="geometry">
            <mxPoint x="350" y="650" as="targetPoint" />
          </mxGeometry>
        </mxCell>
        <mxCell id="AHSf6b9ehlLFjh01Vmg8-31" style="edgeStyle=orthogonalEdgeStyle;orthogonalLoop=1;jettySize=auto;html=1;entryX=0.855;entryY=1;entryDx=0;entryDy=-4.35;entryPerimeter=0;curved=1;" edge="1" parent="WIyWlLk6GJQsqaUBKTNV-1" source="AHSf6b9ehlLFjh01Vmg8-28" target="AHSf6b9ehlLFjh01Vmg8-24">
          <mxGeometry relative="1" as="geometry" />
        </mxCell>
        <mxCell id="AHSf6b9ehlLFjh01Vmg8-32" style="edgeStyle=orthogonalEdgeStyle;orthogonalLoop=1;jettySize=auto;html=1;curved=1;" edge="1" parent="WIyWlLk6GJQsqaUBKTNV-1" source="AHSf6b9ehlLFjh01Vmg8-28">
          <mxGeometry relative="1" as="geometry">
            <mxPoint x="212.5" y="870" as="targetPoint" />
          </mxGeometry>
        </mxCell>
        <mxCell id="AHSf6b9ehlLFjh01Vmg8-28" value="Kafka Consumer&lt;br&gt;(Process Gps point)" style="shape=process;whiteSpace=wrap;html=1;backgroundOutline=1;rounded=1;" vertex="1" parent="WIyWlLk6GJQsqaUBKTNV-1">
          <mxGeometry x="152.5" y="620" width="120" height="60" as="geometry" />
        </mxCell>
        <mxCell id="AHSf6b9ehlLFjh01Vmg8-30" value="&lt;span class=&quot;TextRun SCXW91280980 BCX0&quot; lang=&quot;EN-GB&quot; style=&quot;margin: 0px ; padding: 0px ; color: rgb(0 , 0 , 0) ; font-style: normal ; font-weight: normal ; letter-spacing: normal ; text-indent: 0px ; text-transform: none ; word-spacing: 0px ; background-color: rgb(255 , 255 , 255) ; font-size: 12pt ; font-family: &amp;#34;calibri&amp;#34; , &amp;#34;calibri_embeddedfont&amp;#34; , &amp;#34;calibri_msfontservice&amp;#34; , sans-serif ; line-height: 20.5042px&quot;&gt;&lt;span class=&quot;NormalTextRun SCXW91280980 BCX0&quot; style=&quot;margin: 0px ; padding: 0px ; background-color: inherit&quot;&gt;We will get distance from&lt;/span&gt;&lt;/span&gt;&lt;span class=&quot;TextRun SCXW91280980 BCX0&quot; lang=&quot;EN-GB&quot; style=&quot;margin: 0px ; padding: 0px ; color: rgb(0 , 0 , 0) ; font-style: normal ; font-weight: normal ; letter-spacing: normal ; text-indent: 0px ; text-transform: none ; word-spacing: 0px ; background-color: rgb(255 , 255 , 255) ; font-size: 12pt ; font-family: &amp;#34;calibri&amp;#34; , &amp;#34;calibri_embeddedfont&amp;#34; , &amp;#34;calibri_msfontservice&amp;#34; , sans-serif ; line-height: 20.5042px&quot;&gt;&lt;span class=&quot;NormalTextRun SCXW91280980 BCX0&quot; style=&quot;margin: 0px ; padding: 0px ; background-color: inherit&quot;&gt;&lt;span&gt;&amp;nbsp;&lt;/span&gt;&lt;/span&gt;&lt;/span&gt;&lt;span class=&quot;TextRun SCXW91280980 BCX0&quot; lang=&quot;EN-GB&quot; style=&quot;margin: 0px ; padding: 0px ; color: rgb(0 , 0 , 0) ; font-style: normal ; font-weight: normal ; letter-spacing: normal ; text-indent: 0px ; text-transform: none ; word-spacing: 0px ; background-color: rgb(255 , 255 , 255) ; font-size: 12pt ; font-family: &amp;#34;calibri&amp;#34; , &amp;#34;calibri_embeddedfont&amp;#34; , &amp;#34;calibri_msfontservice&amp;#34; , sans-serif ; line-height: 20.5042px&quot;&gt;&lt;span class=&quot;NormalTextRun SCXW91280980 BCX0&quot; style=&quot;margin: 0px ; padding: 0px ; background-color: inherit&quot;&gt;previous&lt;/span&gt;&lt;/span&gt;&lt;span class=&quot;TextRun SCXW91280980 BCX0&quot; lang=&quot;EN-GB&quot; style=&quot;margin: 0px ; padding: 0px ; color: rgb(0 , 0 , 0) ; font-style: normal ; font-weight: normal ; letter-spacing: normal ; text-indent: 0px ; text-transform: none ; word-spacing: 0px ; background-color: rgb(255 , 255 , 255) ; font-size: 12pt ; font-family: &amp;#34;calibri&amp;#34; , &amp;#34;calibri_embeddedfont&amp;#34; , &amp;#34;calibri_msfontservice&amp;#34; , sans-serif ; line-height: 20.5042px&quot;&gt;&lt;span class=&quot;NormalTextRun SCXW91280980 BCX0&quot; style=&quot;margin: 0px ; padding: 0px ; background-color: inherit&quot;&gt;&lt;span&gt;&amp;nbsp;&lt;/span&gt;&lt;/span&gt;&lt;/span&gt;&lt;span class=&quot;TextRun SCXW91280980 BCX0&quot; lang=&quot;EN-GB&quot; style=&quot;margin: 0px ; padding: 0px ; color: rgb(0 , 0 , 0) ; font-style: normal ; font-weight: normal ; letter-spacing: normal ; text-indent: 0px ; text-transform: none ; word-spacing: 0px ; background-color: rgb(255 , 255 , 255) ; font-size: 12pt ; font-family: &amp;#34;calibri&amp;#34; , &amp;#34;calibri_embeddedfont&amp;#34; , &amp;#34;calibri_msfontservice&amp;#34; , sans-serif ; line-height: 20.5042px&quot;&gt;&lt;span class=&quot;NormalTextRun SpellingErrorV2 SCXW91280980 BCX0&quot; style=&quot;margin: 0px ; padding: 0px ; background-repeat: repeat-x ; background-position: left bottom ; background-image: url(&amp;#34;data:image/svg+xml;base64,PD94bWwgdmVyc2lvbj0iMS4wIiBlbmNvZGluZz0iVVRGLTgiPz4KPHN2ZyB3aWR0aD0iNXB4IiBoZWlnaHQ9IjRweCIgdmlld0JveD0iMCAwIDUgNCIgdmVyc2lvbj0iMS4xIiB4bWxucz0iaHR0cDovL3d3dy53My5vcmcvMjAwMC9zdmciIHhtbG5zOnhsaW5rPSJodHRwOi8vd3d3LnczLm9yZy8xOTk5L3hsaW5rIj4KICAgIDwhLS0gR2VuZXJhdG9yOiBTa2V0Y2ggNTYuMiAoODE2NzIpIC0gaHR0cHM6Ly9za2V0Y2guY29tIC0tPgogICAgPHRpdGxlPnNwZWxsaW5nX3NxdWlnZ2xlPC90aXRsZT4KICAgIDxkZXNjPkNyZWF0ZWQgd2l0aCBTa2V0Y2guPC9kZXNjPgogICAgPGcgaWQ9IkZsYWdzIiBzdHJva2U9Im5vbmUiIHN0cm9rZS13aWR0aD0iMSIgZmlsbD0ibm9uZSIgZmlsbC1ydWxlPSJldmVub2RkIj4KICAgICAgICA8ZyB0cmFuc2Zvcm09InRyYW5zbGF0ZSgtMTAxMC4wMDAwMDAsIC0yOTYuMDAwMDAwKSIgaWQ9InNwZWxsaW5nX3NxdWlnZ2xlIj4KICAgICAgICAgICAgPGcgdHJhbnNmb3JtPSJ0cmFuc2xhdGUoMTAxMC4wMDAwMDAsIDI5Ni4wMDAwMDApIj4KICAgICAgICAgICAgICAgIDxwYXRoIGQ9Ik0wLDMgQzEuMjUsMyAxLjI1LDEgMi41LDEgQzMuNzUsMSAzLjc1LDMgNSwzIiBpZD0iUGF0aCIgc3Ryb2tlPSIjRUIwMDAwIiBzdHJva2Utd2lkdGg9IjEiPjwvcGF0aD4KICAgICAgICAgICAgICAgIDxyZWN0IGlkPSJSZWN0YW5nbGUiIHg9IjAiIHk9IjAiIHdpZHRoPSI1IiBoZWlnaHQ9IjQiPjwvcmVjdD4KICAgICAgICAgICAgPC9nPgogICAgICAgIDwvZz4KICAgIDwvZz4KPC9zdmc+&amp;#34;) ; border-bottom: 1px solid transparent ; background-color: inherit&quot;&gt;gps&lt;/span&gt;&lt;/span&gt;&lt;span class=&quot;TextRun SCXW91280980 BCX0&quot; lang=&quot;EN-GB&quot; style=&quot;margin: 0px ; padding: 0px ; color: rgb(0 , 0 , 0) ; font-style: normal ; font-weight: normal ; letter-spacing: normal ; text-indent: 0px ; text-transform: none ; word-spacing: 0px ; background-color: rgb(255 , 255 , 255) ; font-size: 12pt ; font-family: &amp;#34;calibri&amp;#34; , &amp;#34;calibri_embeddedfont&amp;#34; , &amp;#34;calibri_msfontservice&amp;#34; , sans-serif ; line-height: 20.5042px&quot;&gt;&lt;span class=&quot;NormalTextRun SCXW91280980 BCX0&quot; style=&quot;margin: 0px ; padding: 0px ; background-color: inherit&quot;&gt;&lt;span&gt;&amp;nbsp;&lt;/span&gt;point if distance&lt;span&gt;&amp;nbsp;&lt;/span&gt;&lt;/span&gt;&lt;/span&gt;&lt;span class=&quot;TextRun SCXW91280980 BCX0&quot; lang=&quot;EN-GB&quot; style=&quot;margin: 0px ; padding: 0px ; color: rgb(0 , 0 , 0) ; font-style: normal ; font-weight: normal ; letter-spacing: normal ; text-indent: 0px ; text-transform: none ; word-spacing: 0px ; background-color: rgb(255 , 255 , 255) ; font-size: 12pt ; font-family: &amp;#34;calibri&amp;#34; , &amp;#34;calibri_embeddedfont&amp;#34; , &amp;#34;calibri_msfontservice&amp;#34; , sans-serif ; line-height: 20.5042px&quot;&gt;&lt;span class=&quot;NormalTextRun SCXW91280980 BCX0&quot; style=&quot;margin: 0px ; padding: 0px ; background-color: inherit&quot;&gt;cannot be&lt;span&gt;&amp;nbsp;&lt;/span&gt;&lt;/span&gt;&lt;/span&gt;&lt;span class=&quot;TextRun SCXW91280980 BCX0&quot; lang=&quot;EN-GB&quot; style=&quot;margin: 0px ; padding: 0px ; color: rgb(0 , 0 , 0) ; font-style: normal ; font-weight: normal ; letter-spacing: normal ; text-indent: 0px ; text-transform: none ; word-spacing: 0px ; background-color: rgb(255 , 255 , 255) ; font-size: 12pt ; font-family: &amp;#34;calibri&amp;#34; , &amp;#34;calibri_embeddedfont&amp;#34; , &amp;#34;calibri_msfontservice&amp;#34; , sans-serif ; line-height: 20.5042px&quot;&gt;&lt;span class=&quot;NormalTextRun SCXW91280980 BCX0&quot; style=&quot;margin: 0px ; padding: 0px ; background-color: inherit&quot;&gt;travelled&lt;/span&gt;&lt;/span&gt;&lt;span class=&quot;TextRun SCXW91280980 BCX0&quot; lang=&quot;EN-GB&quot; style=&quot;margin: 0px ; padding: 0px ; color: rgb(0 , 0 , 0) ; font-style: normal ; font-weight: normal ; letter-spacing: normal ; text-indent: 0px ; text-transform: none ; word-spacing: 0px ; background-color: rgb(255 , 255 , 255) ; font-size: 12pt ; font-family: &amp;#34;calibri&amp;#34; , &amp;#34;calibri_embeddedfont&amp;#34; , &amp;#34;calibri_msfontservice&amp;#34; , sans-serif ; line-height: 20.5042px&quot;&gt;&lt;span class=&quot;NormalTextRun SCXW91280980 BCX0&quot; style=&quot;margin: 0px ; padding: 0px ; background-color: inherit&quot;&gt;&lt;span&gt;&amp;nbsp;&lt;/span&gt;by&lt;span&gt;&amp;nbsp;&lt;/span&gt;&lt;/span&gt;&lt;/span&gt;&lt;span class=&quot;TextRun SCXW91280980 BCX0&quot; lang=&quot;EN-GB&quot; style=&quot;margin: 0px ; padding: 0px ; color: rgb(0 , 0 , 0) ; font-style: normal ; font-weight: normal ; letter-spacing: normal ; text-indent: 0px ; text-transform: none ; word-spacing: 0px ; background-color: rgb(255 , 255 , 255) ; font-size: 12pt ; font-family: &amp;#34;calibri&amp;#34; , &amp;#34;calibri_embeddedfont&amp;#34; , &amp;#34;calibri_msfontservice&amp;#34; , sans-serif ; line-height: 20.5042px&quot;&gt;&lt;span class=&quot;NormalTextRun SCXW91280980 BCX0&quot; style=&quot;margin: 0px ; padding: 0px ; background-color: inherit&quot;&gt;car,&lt;/span&gt;&lt;/span&gt;&lt;span class=&quot;TextRun SCXW91280980 BCX0&quot; lang=&quot;EN-GB&quot; style=&quot;margin: 0px ; padding: 0px ; color: rgb(0 , 0 , 0) ; font-style: normal ; font-weight: normal ; letter-spacing: normal ; text-indent: 0px ; text-transform: none ; word-spacing: 0px ; background-color: rgb(255 , 255 , 255) ; font-size: 12pt ; font-family: &amp;#34;calibri&amp;#34; , &amp;#34;calibri_embeddedfont&amp;#34; , &amp;#34;calibri_msfontservice&amp;#34; , sans-serif ; line-height: 20.5042px&quot;&gt;&lt;span class=&quot;NormalTextRun SCXW91280980 BCX0&quot; style=&quot;margin: 0px ; padding: 0px ; background-color: inherit&quot;&gt;&lt;span&gt;&amp;nbsp;&lt;/span&gt;we will mark this as scattered point&lt;/span&gt;&lt;/span&gt;&lt;span class=&quot;TextRun SCXW91280980 BCX0&quot; lang=&quot;EN-GB&quot; style=&quot;margin: 0px ; padding: 0px ; color: rgb(0 , 0 , 0) ; font-style: normal ; font-weight: normal ; letter-spacing: normal ; text-indent: 0px ; text-transform: none ; word-spacing: 0px ; background-color: rgb(255 , 255 , 255) ; font-size: 12pt ; font-family: &amp;#34;calibri&amp;#34; , &amp;#34;calibri_embeddedfont&amp;#34; , &amp;#34;calibri_msfontservice&amp;#34; , sans-serif ; line-height: 20.5042px&quot;&gt;&lt;span class=&quot;NormalTextRun SCXW91280980 BCX0&quot; style=&quot;margin: 0px ; padding: 0px ; background-color: inherit&quot;&gt;.&lt;/span&gt;&lt;/span&gt;&lt;span class=&quot;TextRun SCXW91280980 BCX0&quot; lang=&quot;EN-GB&quot; style=&quot;margin: 0px ; padding: 0px ; color: rgb(0 , 0 , 0) ; font-style: normal ; font-weight: normal ; letter-spacing: normal ; text-indent: 0px ; text-transform: none ; word-spacing: 0px ; background-color: rgb(255 , 255 , 255) ; font-size: 12pt ; font-family: &amp;#34;calibri&amp;#34; , &amp;#34;calibri_embeddedfont&amp;#34; , &amp;#34;calibri_msfontservice&amp;#34; , sans-serif ; line-height: 20.5042px&quot;&gt;&lt;span class=&quot;NormalTextRun SCXW91280980 BCX0&quot; style=&quot;margin: 0px ; padding: 0px ; background-color: inherit&quot;&gt;&lt;span&gt;&amp;nbsp;&lt;/span&gt;If current&lt;span&gt;&amp;nbsp;&lt;/span&gt;&lt;/span&gt;&lt;/span&gt;&lt;span class=&quot;TextRun SCXW91280980 BCX0&quot; lang=&quot;EN-GB&quot; style=&quot;margin: 0px ; padding: 0px ; color: rgb(0 , 0 , 0) ; font-style: normal ; font-weight: normal ; letter-spacing: normal ; text-indent: 0px ; text-transform: none ; word-spacing: 0px ; background-color: rgb(255 , 255 , 255) ; font-size: 12pt ; font-family: &amp;#34;calibri&amp;#34; , &amp;#34;calibri_embeddedfont&amp;#34; , &amp;#34;calibri_msfontservice&amp;#34; , sans-serif ; line-height: 20.5042px&quot;&gt;&lt;span class=&quot;NormalTextRun SpellingErrorV2 SCXW91280980 BCX0&quot; style=&quot;margin: 0px ; padding: 0px ; background-repeat: repeat-x ; background-position: left bottom ; background-image: url(&amp;#34;data:image/svg+xml;base64,PD94bWwgdmVyc2lvbj0iMS4wIiBlbmNvZGluZz0iVVRGLTgiPz4KPHN2ZyB3aWR0aD0iNXB4IiBoZWlnaHQ9IjRweCIgdmlld0JveD0iMCAwIDUgNCIgdmVyc2lvbj0iMS4xIiB4bWxucz0iaHR0cDovL3d3dy53My5vcmcvMjAwMC9zdmciIHhtbG5zOnhsaW5rPSJodHRwOi8vd3d3LnczLm9yZy8xOTk5L3hsaW5rIj4KICAgIDwhLS0gR2VuZXJhdG9yOiBTa2V0Y2ggNTYuMiAoODE2NzIpIC0gaHR0cHM6Ly9za2V0Y2guY29tIC0tPgogICAgPHRpdGxlPnNwZWxsaW5nX3NxdWlnZ2xlPC90aXRsZT4KICAgIDxkZXNjPkNyZWF0ZWQgd2l0aCBTa2V0Y2guPC9kZXNjPgogICAgPGcgaWQ9IkZsYWdzIiBzdHJva2U9Im5vbmUiIHN0cm9rZS13aWR0aD0iMSIgZmlsbD0ibm9uZSIgZmlsbC1ydWxlPSJldmVub2RkIj4KICAgICAgICA8ZyB0cmFuc2Zvcm09InRyYW5zbGF0ZSgtMTAxMC4wMDAwMDAsIC0yOTYuMDAwMDAwKSIgaWQ9InNwZWxsaW5nX3NxdWlnZ2xlIj4KICAgICAgICAgICAgPGcgdHJhbnNmb3JtPSJ0cmFuc2xhdGUoMTAxMC4wMDAwMDAsIDI5Ni4wMDAwMDApIj4KICAgICAgICAgICAgICAgIDxwYXRoIGQ9Ik0wLDMgQzEuMjUsMyAxLjI1LDEgMi41LDEgQzMuNzUsMSAzLjc1LDMgNSwzIiBpZD0iUGF0aCIgc3Ryb2tlPSIjRUIwMDAwIiBzdHJva2Utd2lkdGg9IjEiPjwvcGF0aD4KICAgICAgICAgICAgICAgIDxyZWN0IGlkPSJSZWN0YW5nbGUiIHg9IjAiIHk9IjAiIHdpZHRoPSI1IiBoZWlnaHQ9IjQiPjwvcmVjdD4KICAgICAgICAgICAgPC9nPgogICAgICAgIDwvZz4KICAgIDwvZz4KPC9zdmc+&amp;#34;) ; border-bottom: 1px solid transparent ; background-color: inherit&quot;&gt;gps&lt;/span&gt;&lt;/span&gt;&lt;span class=&quot;TextRun SCXW91280980 BCX0&quot; lang=&quot;EN-GB&quot; style=&quot;margin: 0px ; padding: 0px ; color: rgb(0 , 0 , 0) ; font-style: normal ; font-weight: normal ; letter-spacing: normal ; text-indent: 0px ; text-transform: none ; word-spacing: 0px ; background-color: rgb(255 , 255 , 255) ; font-size: 12pt ; font-family: &amp;#34;calibri&amp;#34; , &amp;#34;calibri_embeddedfont&amp;#34; , &amp;#34;calibri_msfontservice&amp;#34; , sans-serif ; line-height: 20.5042px&quot;&gt;&lt;span class=&quot;NormalTextRun SCXW91280980 BCX0&quot; style=&quot;margin: 0px ; padding: 0px ; background-color: inherit&quot;&gt;&lt;span&gt;&amp;nbsp;&lt;/span&gt;point is not last then we will calculate distance of ea&lt;/span&gt;&lt;/span&gt;&lt;span class=&quot;TextRun SCXW91280980 BCX0&quot; lang=&quot;EN-GB&quot; style=&quot;margin: 0px ; padding: 0px ; color: rgb(0 , 0 , 0) ; font-style: normal ; font-weight: normal ; letter-spacing: normal ; text-indent: 0px ; text-transform: none ; word-spacing: 0px ; background-color: rgb(255 , 255 , 255) ; font-size: 12pt ; font-family: &amp;#34;calibri&amp;#34; , &amp;#34;calibri_embeddedfont&amp;#34; , &amp;#34;calibri_msfontservice&amp;#34; , sans-serif ; line-height: 20.5042px&quot;&gt;&lt;span class=&quot;NormalTextRun SCXW91280980 BCX0&quot; style=&quot;margin: 0px ; padding: 0px ; background-color: inherit&quot;&gt;ch points&lt;span&gt;&amp;nbsp;&lt;/span&gt;&lt;/span&gt;&lt;/span&gt;&lt;span class=&quot;TextRun SCXW91280980 BCX0&quot; lang=&quot;EN-GB&quot; style=&quot;margin: 0px ; padding: 0px ; color: rgb(0 , 0 , 0) ; font-style: normal ; font-weight: normal ; letter-spacing: normal ; text-indent: 0px ; text-transform: none ; word-spacing: 0px ; background-color: rgb(255 , 255 , 255) ; font-size: 12pt ; font-family: &amp;#34;calibri&amp;#34; , &amp;#34;calibri_embeddedfont&amp;#34; , &amp;#34;calibri_msfontservice&amp;#34; , sans-serif ; line-height: 20.5042px&quot;&gt;&lt;span class=&quot;NormalTextRun SCXW91280980 BCX0&quot; style=&quot;margin: 0px ; padding: 0px ; background-color: inherit&quot;&gt;whose&lt;span&gt;&amp;nbsp;&lt;/span&gt;&lt;/span&gt;&lt;span class=&quot;NormalTextRun SpellingErrorV2 SCXW91280980 BCX0&quot; style=&quot;margin: 0px ; padding: 0px ; background-repeat: repeat-x ; background-position: left bottom ; background-image: url(&amp;#34;data:image/svg+xml;base64,PD94bWwgdmVyc2lvbj0iMS4wIiBlbmNvZGluZz0iVVRGLTgiPz4KPHN2ZyB3aWR0aD0iNXB4IiBoZWlnaHQ9IjRweCIgdmlld0JveD0iMCAwIDUgNCIgdmVyc2lvbj0iMS4xIiB4bWxucz0iaHR0cDovL3d3dy53My5vcmcvMjAwMC9zdmciIHhtbG5zOnhsaW5rPSJodHRwOi8vd3d3LnczLm9yZy8xOTk5L3hsaW5rIj4KICAgIDwhLS0gR2VuZXJhdG9yOiBTa2V0Y2ggNTYuMiAoODE2NzIpIC0gaHR0cHM6Ly9za2V0Y2guY29tIC0tPgogICAgPHRpdGxlPnNwZWxsaW5nX3NxdWlnZ2xlPC90aXRsZT4KICAgIDxkZXNjPkNyZWF0ZWQgd2l0aCBTa2V0Y2guPC9kZXNjPgogICAgPGcgaWQ9IkZsYWdzIiBzdHJva2U9Im5vbmUiIHN0cm9rZS13aWR0aD0iMSIgZmlsbD0ibm9uZSIgZmlsbC1ydWxlPSJldmVub2RkIj4KICAgICAgICA8ZyB0cmFuc2Zvcm09InRyYW5zbGF0ZSgtMTAxMC4wMDAwMDAsIC0yOTYuMDAwMDAwKSIgaWQ9InNwZWxsaW5nX3NxdWlnZ2xlIj4KICAgICAgICAgICAgPGcgdHJhbnNmb3JtPSJ0cmFuc2xhdGUoMTAxMC4wMDAwMDAsIDI5Ni4wMDAwMDApIj4KICAgICAgICAgICAgICAgIDxwYXRoIGQ9Ik0wLDMgQzEuMjUsMyAxLjI1LDEgMi41LDEgQzMuNzUsMSAzLjc1LDMgNSwzIiBpZD0iUGF0aCIgc3Ryb2tlPSIjRUIwMDAwIiBzdHJva2Utd2lkdGg9IjEiPjwvcGF0aD4KICAgICAgICAgICAgICAgIDxyZWN0IGlkPSJSZWN0YW5nbGUiIHg9IjAiIHk9IjAiIHdpZHRoPSI1IiBoZWlnaHQ9IjQiPjwvcmVjdD4KICAgICAgICAgICAgPC9nPgogICAgICAgIDwvZz4KICAgIDwvZz4KPC9zdmc+&amp;#34;) ; border-bottom: 1px solid transparent ; background-color: inherit&quot;&gt;gpst&lt;/span&gt;&lt;span class=&quot;NormalTextRun SCXW91280980 BCX0&quot; style=&quot;margin: 0px ; padding: 0px ; background-color: inherit&quot;&gt;&lt;span&gt;&amp;nbsp;&lt;/span&gt;time is greater than current&lt;span&gt;&amp;nbsp;&lt;/span&gt;&lt;/span&gt;&lt;span class=&quot;NormalTextRun SpellingErrorV2 SCXW91280980 BCX0&quot; style=&quot;margin: 0px ; padding: 0px ; background-repeat: repeat-x ; background-position: left bottom ; background-image: url(&amp;#34;data:image/svg+xml;base64,PD94bWwgdmVyc2lvbj0iMS4wIiBlbmNvZGluZz0iVVRGLTgiPz4KPHN2ZyB3aWR0aD0iNXB4IiBoZWlnaHQ9IjRweCIgdmlld0JveD0iMCAwIDUgNCIgdmVyc2lvbj0iMS4xIiB4bWxucz0iaHR0cDovL3d3dy53My5vcmcvMjAwMC9zdmciIHhtbG5zOnhsaW5rPSJodHRwOi8vd3d3LnczLm9yZy8xOTk5L3hsaW5rIj4KICAgIDwhLS0gR2VuZXJhdG9yOiBTa2V0Y2ggNTYuMiAoODE2NzIpIC0gaHR0cHM6Ly9za2V0Y2guY29tIC0tPgogICAgPHRpdGxlPnNwZWxsaW5nX3NxdWlnZ2xlPC90aXRsZT4KICAgIDxkZXNjPkNyZWF0ZWQgd2l0aCBTa2V0Y2guPC9kZXNjPgogICAgPGcgaWQ9IkZsYWdzIiBzdHJva2U9Im5vbmUiIHN0cm9rZS13aWR0aD0iMSIgZmlsbD0ibm9uZSIgZmlsbC1ydWxlPSJldmVub2RkIj4KICAgICAgICA8ZyB0cmFuc2Zvcm09InRyYW5zbGF0ZSgtMTAxMC4wMDAwMDAsIC0yOTYuMDAwMDAwKSIgaWQ9InNwZWxsaW5nX3NxdWlnZ2xlIj4KICAgICAgICAgICAgPGcgdHJhbnNmb3JtPSJ0cmFuc2xhdGUoMTAxMC4wMDAwMDAsIDI5Ni4wMDAwMDApIj4KICAgICAgICAgICAgICAgIDxwYXRoIGQ9Ik0wLDMgQzEuMjUsMyAxLjI1LDEgMi41LDEgQzMuNzUsMSAzLjc1LDMgNSwzIiBpZD0iUGF0aCIgc3Ryb2tlPSIjRUIwMDAwIiBzdHJva2Utd2lkdGg9IjEiPjwvcGF0aD4KICAgICAgICAgICAgICAgIDxyZWN0IGlkPSJSZWN0YW5nbGUiIHg9IjAiIHk9IjAiIHdpZHRoPSI1IiBoZWlnaHQ9IjQiPjwvcmVjdD4KICAgICAgICAgICAgPC9nPgogICAgICAgIDwvZz4KICAgIDwvZz4KPC9zdmc+&amp;#34;) ; border-bottom: 1px solid transparent ; background-color: inherit&quot;&gt;gps&lt;/span&gt;&lt;span class=&quot;NormalTextRun SCXW91280980 BCX0&quot; style=&quot;margin: 0px ; padding: 0px ; background-color: inherit&quot;&gt;&lt;span&gt;&amp;nbsp;&lt;/span&gt;point&#39;s&lt;span&gt;&amp;nbsp;&lt;/span&gt;&lt;/span&gt;&lt;span class=&quot;NormalTextRun SpellingErrorV2 SCXW91280980 BCX0&quot; style=&quot;margin: 0px ; padding: 0px ; background-repeat: repeat-x ; background-position: left bottom ; background-image: url(&amp;#34;data:image/svg+xml;base64,PD94bWwgdmVyc2lvbj0iMS4wIiBlbmNvZGluZz0iVVRGLTgiPz4KPHN2ZyB3aWR0aD0iNXB4IiBoZWlnaHQ9IjRweCIgdmlld0JveD0iMCAwIDUgNCIgdmVyc2lvbj0iMS4xIiB4bWxucz0iaHR0cDovL3d3dy53My5vcmcvMjAwMC9zdmciIHhtbG5zOnhsaW5rPSJodHRwOi8vd3d3LnczLm9yZy8xOTk5L3hsaW5rIj4KICAgIDwhLS0gR2VuZXJhdG9yOiBTa2V0Y2ggNTYuMiAoODE2NzIpIC0gaHR0cHM6Ly9za2V0Y2guY29tIC0tPgogICAgPHRpdGxlPnNwZWxsaW5nX3NxdWlnZ2xlPC90aXRsZT4KICAgIDxkZXNjPkNyZWF0ZWQgd2l0aCBTa2V0Y2guPC9kZXNjPgogICAgPGcgaWQ9IkZsYWdzIiBzdHJva2U9Im5vbmUiIHN0cm9rZS13aWR0aD0iMSIgZmlsbD0ibm9uZSIgZmlsbC1ydWxlPSJldmVub2RkIj4KICAgICAgICA8ZyB0cmFuc2Zvcm09InRyYW5zbGF0ZSgtMTAxMC4wMDAwMDAsIC0yOTYuMDAwMDAwKSIgaWQ9InNwZWxsaW5nX3NxdWlnZ2xlIj4KICAgICAgICAgICAgPGcgdHJhbnNmb3JtPSJ0cmFuc2xhdGUoMTAxMC4wMDAwMDAsIDI5Ni4wMDAwMDApIj4KICAgICAgICAgICAgICAgIDxwYXRoIGQ9Ik0wLDMgQzEuMjUsMyAxLjI1LDEgMi41LDEgQzMuNzUsMSAzLjc1LDMgNSwzIiBpZD0iUGF0aCIgc3Ryb2tlPSIjRUIwMDAwIiBzdHJva2Utd2lkdGg9IjEiPjwvcGF0aD4KICAgICAgICAgICAgICAgIDxyZWN0IGlkPSJSZWN0YW5nbGUiIHg9IjAiIHk9IjAiIHdpZHRoPSI1IiBoZWlnaHQ9IjQiPjwvcmVjdD4KICAgICAgICAgICAgPC9nPgogICAgICAgIDwvZz4KICAgIDwvZz4KPC9zdmc+&amp;#34;) ; border-bottom: 1px solid transparent ; background-color: inherit&quot;&gt;gpst&lt;/span&gt;&lt;span class=&quot;NormalTextRun SCXW91280980 BCX0&quot; style=&quot;margin: 0px ; padding: 0px ; background-color: inherit&quot;&gt;&lt;span&gt;&amp;nbsp;&lt;/span&gt;time.&lt;br&gt;&lt;span class=&quot;TextRun SCXW248888320 BCX0&quot; lang=&quot;EN-GB&quot; style=&quot;margin: 0px ; padding: 0px ; font-size: 12pt ; font-family: &amp;#34;calibri&amp;#34; , &amp;#34;calibri_embeddedfont&amp;#34; , &amp;#34;calibri_msfontservice&amp;#34; , sans-serif ; line-height: 20.5042px&quot;&gt;&lt;span class=&quot;NormalTextRun SCXW248888320 BCX0&quot; style=&quot;margin: 0px ; padding: 0px ; background-color: inherit&quot;&gt;We&amp;nbsp;&lt;/span&gt;&lt;/span&gt;&lt;span class=&quot;TextRun SCXW248888320 BCX0&quot; lang=&quot;EN-GB&quot; style=&quot;margin: 0px ; padding: 0px ; font-size: 12pt ; font-family: &amp;#34;calibri&amp;#34; , &amp;#34;calibri_embeddedfont&amp;#34; , &amp;#34;calibri_msfontservice&amp;#34; , sans-serif ; line-height: 20.5042px&quot;&gt;&lt;span class=&quot;NormalTextRun SCXW248888320 BCX0&quot; style=&quot;margin: 0px ; padding: 0px ; background-color: inherit&quot;&gt;will update in Mongo with distance&lt;/span&gt;&lt;/span&gt;&lt;span class=&quot;TextRun SCXW248888320 BCX0&quot; lang=&quot;EN-GB&quot; style=&quot;margin: 0px ; padding: 0px ; font-size: 12pt ; font-family: &amp;#34;calibri&amp;#34; , &amp;#34;calibri_embeddedfont&amp;#34; , &amp;#34;calibri_msfontservice&amp;#34; , sans-serif ; line-height: 20.5042px&quot;&gt;&lt;span class=&quot;NormalTextRun SCXW248888320 BCX0&quot; style=&quot;margin: 0px ; padding: 0px ; background-color: inherit&quot;&gt;&amp;nbsp;from last point, cumulative distance&lt;/span&gt;&lt;/span&gt;&lt;span class=&quot;TextRun SCXW248888320 BCX0&quot; lang=&quot;EN-GB&quot; style=&quot;margin: 0px ; padding: 0px ; font-size: 12pt ; font-family: &amp;#34;calibri&amp;#34; , &amp;#34;calibri_embeddedfont&amp;#34; , &amp;#34;calibri_msfontservice&amp;#34; , sans-serif ; line-height: 20.5042px&quot;&gt;&lt;span class=&quot;NormalTextRun SCXW248888320 BCX0&quot; style=&quot;margin: 0px ; padding: 0px ; background-color: inherit&quot;&gt;&amp;nbsp;and&lt;/span&gt;&lt;/span&gt;&lt;span class=&quot;TextRun SCXW248888320 BCX0&quot; lang=&quot;EN-GB&quot; style=&quot;margin: 0px ; padding: 0px ; font-size: 12pt ; font-family: &amp;#34;calibri&amp;#34; , &amp;#34;calibri_embeddedfont&amp;#34; , &amp;#34;calibri_msfontservice&amp;#34; , sans-serif ; line-height: 20.5042px&quot;&gt;&lt;span class=&quot;NormalTextRun SCXW248888320 BCX0&quot; style=&quot;margin: 0px ; padding: 0px ; background-color: inherit&quot;&gt;&amp;nbsp;scattered point.&lt;/span&gt;&lt;/span&gt;&lt;span class=&quot;EOP SCXW248888320 BCX0&quot; style=&quot;margin: 0px ; padding: 0px ; font-size: 12pt ; line-height: 20.5042px ; font-family: &amp;#34;calibri&amp;#34; , &amp;#34;calibri_embeddedfont&amp;#34; , &amp;#34;calibri_msfontservice&amp;#34; , sans-serif&quot;&gt;&amp;nbsp;&lt;/span&gt;&lt;br&gt;&lt;/span&gt;&lt;/span&gt;" style="text;html=1;align=left;verticalAlign=middle;whiteSpace=wrap;rounded=1;" vertex="1" parent="WIyWlLk6GJQsqaUBKTNV-1">
          <mxGeometry x="340" y="650" width="450" height="160" as="geometry" />
        </mxCell>
        <mxCell id="AHSf6b9ehlLFjh01Vmg8-34" style="edgeStyle=orthogonalEdgeStyle;orthogonalLoop=1;jettySize=auto;html=1;curved=1;" edge="1" parent="WIyWlLk6GJQsqaUBKTNV-1" source="AHSf6b9ehlLFjh01Vmg8-33">
          <mxGeometry relative="1" as="geometry">
            <mxPoint x="210" y="960" as="targetPoint" />
          </mxGeometry>
        </mxCell>
        <mxCell id="AHSf6b9ehlLFjh01Vmg8-33" value="Kafka Server" style="whiteSpace=wrap;html=1;rounded=1;" vertex="1" parent="WIyWlLk6GJQsqaUBKTNV-1">
          <mxGeometry x="150" y="870" width="120" height="40" as="geometry" />
        </mxCell>
        <mxCell id="AHSf6b9ehlLFjh01Vmg8-36" style="edgeStyle=orthogonalEdgeStyle;orthogonalLoop=1;jettySize=auto;html=1;curved=1;" edge="1" parent="WIyWlLk6GJQsqaUBKTNV-1" source="AHSf6b9ehlLFjh01Vmg8-35" target="AHSf6b9ehlLFjh01Vmg8-37">
          <mxGeometry relative="1" as="geometry">
            <mxPoint x="360" y="990" as="targetPoint" />
          </mxGeometry>
        </mxCell>
        <mxCell id="AHSf6b9ehlLFjh01Vmg8-35" value="Kafka Consumer&lt;br&gt;(Calcuate sharp turm, sudden speed increased, sudden break,&amp;nbsp; jerk)" style="shape=process;whiteSpace=wrap;html=1;backgroundOutline=1;rounded=1;" vertex="1" parent="WIyWlLk6GJQsqaUBKTNV-1">
          <mxGeometry x="155" y="960" width="120" height="60" as="geometry" />
        </mxCell>
        <mxCell id="AHSf6b9ehlLFjh01Vmg8-37" value="Mysql" style="shape=cylinder3;whiteSpace=wrap;html=1;boundedLbl=1;backgroundOutline=1;size=15;rounded=1;" vertex="1" parent="WIyWlLk6GJQsqaUBKTNV-1">
          <mxGeometry x="330" y="950" width="60" height="80" as="geometry" />
        </mxCell>
      </root>
    </mxGraphModel>
  </diagram>
</mxfile>
